<svg width="149" height="64" viewBox="0 0 149 64" fill="none" xmlns="http://www.w3.org/2000/svg">
<path d="M0.5 0.916016H22.9579C32.8686 0.916016 40.9028 8.9502 40.9028 18.8609V41.3188H18.4448C8.53417 41.3188 0.5 33.2846 0.5 23.3739V0.916016Z" fill="#131313"/>
<path d="M62.7206 0.916016L62.7206 25.2999C62.7206 35.2105 54.6864 43.2447 44.7757 43.2447L20.3919 43.2447L20.3919 18.8609C20.3919 8.95019 28.4261 0.916014 38.3367 0.916015L62.7206 0.916016Z" fill="#EE0000"/>
<path d="M40.9028 22.7338L40.9028 45.1917C40.9028 55.1024 32.8686 63.1365 22.9579 63.1365L0.499991 63.1365L0.499992 40.6786C0.499992 30.7679 8.53418 22.7338 18.4448 22.7338L40.9028 22.7338Z" fill="#EE0000"/>
<path d="M19.085 20.0065H44.7757C54.6864 20.0065 62.7206 28.0407 62.7206 37.9513V63.6421H37.0298C27.1191 63.6421 19.085 55.6079 19.085 45.6973V20.0065Z" fill="#131313"/>
<path d="M80.3598 25.7046H86.1838V29.1366H75.9138V10.8846H80.3598V25.7046ZM96.9365 29.3186C95.2205 29.3186 93.6431 28.9199 92.2045 28.1226C90.7831 27.3253 89.6478 26.2159 88.7985 24.7946C87.9665 23.3559 87.5505 21.7439 87.5505 19.9586C87.5505 18.1733 87.9665 16.5699 88.7985 15.1486C89.6478 13.7273 90.7831 12.6179 92.2045 11.8206C93.6431 11.0233 95.2205 10.6246 96.9365 10.6246C98.6525 10.6246 100.221 11.0233 101.642 11.8206C103.081 12.6179 104.208 13.7273 105.022 15.1486C105.854 16.5699 106.27 18.1733 106.27 19.9586C106.27 21.7439 105.854 23.3559 105.022 24.7946C104.19 26.2159 103.064 27.3253 101.642 28.1226C100.221 28.9199 98.6525 29.3186 96.9365 29.3186ZM96.9365 25.2626C98.3925 25.2626 99.5538 24.7773 100.42 23.8066C101.304 22.8359 101.746 21.5533 101.746 19.9586C101.746 18.3466 101.304 17.0639 100.42 16.1106C99.5538 15.1399 98.3925 14.6546 96.9365 14.6546C95.4631 14.6546 94.2845 15.1313 93.4005 16.0846C92.5338 17.0379 92.1005 18.3293 92.1005 19.9586C92.1005 21.5706 92.5338 22.8619 93.4005 23.8326C94.2845 24.7859 95.4631 25.2626 96.9365 25.2626ZM120.86 16.6566C120.531 16.0499 120.054 15.5906 119.43 15.2786C118.823 14.9493 118.104 14.7846 117.272 14.7846C115.833 14.7846 114.681 15.2613 113.814 16.2146C112.947 17.1506 112.514 18.4073 112.514 19.9846C112.514 21.6659 112.965 22.9833 113.866 23.9366C114.785 24.8726 116.041 25.3406 117.636 25.3406C118.728 25.3406 119.647 25.0633 120.392 24.5086C121.155 23.9539 121.709 23.1566 122.056 22.1166H116.414V18.8406H126.086V22.9746C125.757 24.0839 125.193 25.1153 124.396 26.0686C123.616 27.0219 122.619 27.7933 121.406 28.3826C120.193 28.9719 118.823 29.2666 117.298 29.2666C115.495 29.2666 113.883 28.8766 112.462 28.0966C111.058 27.2993 109.957 26.1986 109.16 24.7946C108.38 23.3906 107.99 21.7873 107.99 19.9846C107.99 18.1819 108.38 16.5786 109.16 15.1746C109.957 13.7533 111.058 12.6526 112.462 11.8726C113.866 11.0753 115.469 10.6766 117.272 10.6766C119.456 10.6766 121.293 11.2053 122.784 12.2626C124.292 13.3199 125.289 14.7846 125.774 16.6566H120.86ZM137.181 29.3186C135.465 29.3186 133.887 28.9199 132.449 28.1226C131.027 27.3253 129.892 26.2159 129.043 24.7946C128.211 23.3559 127.795 21.7439 127.795 19.9586C127.795 18.1733 128.211 16.5699 129.043 15.1486C129.892 13.7273 131.027 12.6179 132.449 11.8206C133.887 11.0233 135.465 10.6246 137.181 10.6246C138.897 10.6246 140.465 11.0233 141.887 11.8206C143.325 12.6179 144.452 13.7273 145.267 15.1486C146.099 16.5699 146.515 18.1733 146.515 19.9586C146.515 21.7439 146.099 23.3559 145.267 24.7946C144.435 26.2159 143.308 27.3253 141.887 28.1226C140.465 28.9199 138.897 29.3186 137.181 29.3186ZM137.181 25.2626C138.637 25.2626 139.798 24.7773 140.665 23.8066C141.549 22.8359 141.991 21.5533 141.991 19.9586C141.991 18.3466 141.549 17.0639 140.665 16.1106C139.798 15.1399 138.637 14.6546 137.181 14.6546C135.707 14.6546 134.529 15.1313 133.645 16.0846C132.778 17.0379 132.345 18.3293 132.345 19.9586C132.345 21.5706 132.778 22.8619 133.645 23.8326C134.529 24.7859 135.707 25.2626 137.181 25.2626ZM91.7218 36.8846V55.1366H87.2758V47.6226H80.3598V55.1366H75.9138V36.8846H80.3598V44.0346H87.2758V36.8846H91.7218ZM99.3774 40.4466V44.1386H105.331V47.5706H99.3774V51.5746H106.111V55.1366H94.9314V36.8846H106.111V40.4466H99.3774ZM118.306 55.1366L114.51 48.2466H113.444V55.1366H108.998V36.8846H116.46C117.899 36.8846 119.121 37.1359 120.126 37.6386C121.149 38.1413 121.911 38.8346 122.414 39.7186C122.917 40.5853 123.168 41.5559 123.168 42.6306C123.168 43.8439 122.821 44.9273 122.128 45.8806C121.452 46.8339 120.447 47.5099 119.112 47.9086L123.324 55.1366H118.306ZM113.444 45.1006H116.2C117.015 45.1006 117.621 44.9013 118.02 44.5026C118.436 44.1039 118.644 43.5406 118.644 42.8126C118.644 42.1193 118.436 41.5733 118.02 41.1746C117.621 40.7759 117.015 40.5766 116.2 40.5766H113.444V45.1006ZM130.405 40.4466V44.1386H136.359V47.5706H130.405V51.5746H137.139V55.1366H125.959V36.8846H137.139V40.4466H130.405Z" fill="white"/>
</svg>
